<?xml version="1.0" standalone="no"?><!DOCTYPE svg PUBLIC "-//W3C//DTD SVG 1.1//EN" "http://www.w3.org/Graphics/SVG/1.1/DTD/svg11.dtd"><svg t="1586056897462" class="icon" viewBox="0 0 1126 1024" version="1.1" xmlns="http://www.w3.org/2000/svg" p-id="2733" xmlns:xlink="http://www.w3.org/1999/xlink" width="35.1875" height="32"><defs><style type="text/css"></style></defs><path d="M1011.5072 1.4336c58.7776 0 105.0624 46.9504 105.0624 106.496v778.24c0 59.5968-48.128 106.496-105.0624 106.496H105.0624C46.2848 992.6656 0 943.9232 0 886.1696v-778.24C0 48.4352 48.128 1.4848 105.0624 1.4848h906.4448z m35.6352 882.944v-265.4208c-1.792-1.8432-121.1392-135.424-270.6944-135.424-83.712 0-181.6576 77.6192-274.2784 151.6544-90.7776 74.0352-178.0736 142.6432-259.9936 142.6432-71.2192 0-131.7888-30.72-172.7488-61.44v167.936c0 19.8656 16.0768 36.1472 35.6352 36.1472h906.4448a35.9936 35.9936 0 0 0 35.6352-36.096zM71.2704 107.9808v518.144c23.0912 23.552 92.5696 83.0976 172.6976 83.0976 56.9856 0 138.9056-65.024 217.2416-128.2048 103.3216-81.2544 208.384-166.0928 317.0304-166.0928 117.504 0 213.6576 63.1808 270.6432 110.08V108.032a35.9936 35.9936 0 0 0-35.584-36.1472H106.8544a35.9936 35.9936 0 0 0-35.6352 36.1472zM348.9792 496.128c-76.544 0-138.9056-63.232-138.9056-140.8512 0-77.6192 62.3616-140.8 138.9056-140.8 76.5952 0 138.9056 63.1808 138.9056 140.8S425.6256 496.128 349.0304 496.128z m0-213.0944c-37.376 0-69.4272 32.512-69.4272 70.4512 0 37.888 30.2592 70.4 69.4272 70.4 37.376 0 69.4784-30.72 69.4784-70.4 0-37.888-30.3104-70.4512-69.4784-70.4512z" p-id="2734" fill="#cdcdcd"></path></svg>