<?xml version="1.0" standalone="no"?><!DOCTYPE svg PUBLIC "-//W3C//DTD SVG 1.1//EN" "http://www.w3.org/Graphics/SVG/1.1/DTD/svg11.dtd"><svg t="1586057117827" class="icon" viewBox="0 0 1210 1024" version="1.1" xmlns="http://www.w3.org/2000/svg" p-id="3846" xmlns:xlink="http://www.w3.org/1999/xlink" width="37.8125" height="32"><defs><style type="text/css"></style></defs><path d="M252.09 409.6c-30.254 0-50.362-20.387-50.362-51.107C201.728 159 358.028 0.373 554.636 0.373c151.272 0 287.464 102.4 337.92 250.693 5.027 25.6-5.12 56.32-35.375 61.44-25.134 10.24-55.389-5.12-65.536-30.72a244.084 244.084 0 0 0-237.01-179.107c-141.125 0-252.09 112.64-252.09 255.814 0 30.72-20.2 51.2-50.455 51.2z" p-id="3847" fill="#cdcdcd"></path><path d="M907.636 818.92c-30.254 0-50.455-20.48-50.455-51.2 0-30.626 20.2-51.106 50.455-51.106 110.965 0 201.728-92.067 201.728-204.614 0-112.64-90.763-204.614-201.728-204.614-15.08 0-35.374 0-50.455 5.12-25.134 5.12-55.389-10.24-60.509-35.84-5.027-25.6 10.147-56.32 35.375-61.44 25.134-5.027 50.362-10.24 75.59-10.24 166.353 0.093 302.545 138.24 302.545 307.014S1073.99 818.92 907.636 818.92z m-504.273 0H252.09c-30.254 0-50.362-20.48-50.362-51.2 0-30.626 20.108-51.106 50.362-51.106h151.273c30.254 0 50.455 20.48 50.455 51.2 0 30.72-20.2 51.2-50.455 51.2z" p-id="3848" fill="#cdcdcd"></path><path d="M907.636 818.92H806.82c-30.255 0-50.455-20.48-50.455-51.2 0-30.626 20.2-51.106 50.455-51.106h100.817c30.255 0 50.456 20.48 50.456 51.2 0 30.72-20.201 51.2-50.456 51.2z m-655.546 0C110.964 818.92 0 706.375 0 563.2c0-143.36 110.964-255.814 252.09-255.814 30.255 0 50.455 20.48 50.455 51.2 0 30.627-20.2 51.107-50.455 51.107-85.643 0-151.273 66.467-151.273 153.507 0 86.947 65.63 153.414 151.273 153.414 30.255 0 50.455 20.48 50.455 51.2 0 30.72-20.2 51.2-50.455 51.2z m353 204.708c-30.254 0-50.454-20.48-50.454-51.2V460.8c0-30.72 20.2-51.2 50.455-51.2 30.254 0 50.455 20.48 50.455 51.2v511.628c0 30.72-20.2 51.2-50.455 51.2z" p-id="3849" fill="#cdcdcd"></path><path d="M453.818 665.507a45.428 45.428 0 0 1-35.374-15.36 49.99 49.99 0 0 1 0-71.68l151.365-153.414a48.221 48.221 0 0 1 70.563 0c20.201 20.48 20.201 51.2 0 71.68L489.1 650.053a45.428 45.428 0 0 1-35.282 15.36z" p-id="3850" fill="#cdcdcd"></path><path d="M756.364 665.507a45.428 45.428 0 0 1-35.375-15.36L569.903 496.64a49.99 49.99 0 0 1 0-71.68 48.221 48.221 0 0 1 70.562 0l151.273 153.6c20.2 20.48 20.2 51.107 0 71.587a45.428 45.428 0 0 1-35.281 15.36z" p-id="3851" fill="#cdcdcd"></path></svg>