<?xml version="1.0" standalone="no"?><!DOCTYPE svg PUBLIC "-//W3C//DTD SVG 1.1//EN" "http://www.w3.org/Graphics/SVG/1.1/DTD/svg11.dtd"><svg t="1585981554738" class="icon" viewBox="0 0 1024 1024" version="1.1" xmlns="http://www.w3.org/2000/svg" p-id="2741" xmlns:xlink="http://www.w3.org/1999/xlink" width="32" height="32"><defs><style type="text/css"></style></defs><path d="M1004.90394 287.3C987.70394 260 958.70394 244 958.70394 244l-67-39.7v-92.5c-2.4-33.8-32.6-57.5-57.5-57.5H189.60394c-36.8 0-54.5 24.3-57.5 57.5v92.5l-80 45.7s-27.3 16-39.1 37.4c-13.6 24.3-13 63.4-13 63.4v472c0 69.4 69.4 142.9 130.4 142.9h760.7c52.2 0 132.8-42.7 132.8-135.8V357.3c-0.1 0-1.8-42.1-19-70z m-872.2 69.4l-70-46.8 70-46.2v93z m707.3 25.5L549.50394 554.8s-16.6 13-37.9 12.5c-20.2-0.6-34.4-10.1-34.4-10.1l-294.1-175V132.6c0-19.6 8.3-27.9 27.9-27.9h601.2c19.6 0 27.9 8.3 27.9 27.9v249.6z m52.2-23.7v-96.1l71.7 49.8-71.7 46.3z" p-id="2742" fill="#fdb92c"></path><path d="M605.20394 314.6H313.50394c-11.3 0-21.9 13.6-21.9 24.9 0 11.3 10.7 24.9 21.9 24.9h291.7c11.9 0 20.8-13.6 20.8-24.9 0-11.2-9.5-24.9-20.8-24.9zM716.70394 194.3H307.60394c-11.3 0-21.9 13.6-21.9 24.9 0 11.3 10.7 24.9 21.9 24.9h409.1c11.3 0 20.8-13.6 20.8-24.9-0.1-11.3-9.5-24.9-20.8-24.9z" p-id="2743" fill="#fdb92c"></path></svg>